<svg width="32" height="32" viewBox="0 0 32 32" fill="none" xmlns="http://www.w3.org/2000/svg">
<path d="M5.33366 5.33203H26.667C28.1337 5.33203 29.3337 6.53203 29.3337 7.9987V23.9987C29.3337 25.4654 28.1337 26.6654 26.667 26.6654H5.33366C3.86699 26.6654 2.66699 25.4654 2.66699 23.9987V7.9987C2.66699 6.53203 3.86699 5.33203 5.33366 5.33203Z" stroke="#473E9E" stroke-width="3.36842" stroke-linecap="round" stroke-linejoin="round"/>
<path d="M14.495 18.115C14.535 18.115 14.575 18.1233 14.615 18.14C14.655 18.1533 14.6933 18.1783 14.73 18.215L15.4 18.92C15.1067 19.3033 14.7383 19.5933 14.295 19.79C13.855 19.9833 13.3333 20.08 12.73 20.08C12.1767 20.08 11.68 19.9867 11.24 19.8C10.8033 19.61 10.4317 19.35 10.125 19.02C9.82167 18.6867 9.58833 18.2933 9.425 17.84C9.26167 17.3833 9.18 16.8883 9.18 16.355C9.18 15.8117 9.27333 15.3133 9.46 14.86C9.64667 14.4033 9.90667 14.01 10.24 13.68C10.5767 13.35 10.9783 13.0933 11.445 12.91C11.9117 12.7267 12.4267 12.635 12.99 12.635C13.2633 12.635 13.52 12.66 13.76 12.71C14.0033 12.7567 14.23 12.8233 14.44 12.91C14.65 12.9933 14.8433 13.095 15.02 13.215C15.1967 13.3317 15.3533 13.4617 15.49 13.605L14.92 14.37C14.8833 14.4167 14.84 14.46 14.79 14.5C14.74 14.5367 14.67 14.555 14.58 14.555C14.52 14.555 14.4633 14.5417 14.41 14.515C14.3567 14.4883 14.3 14.4567 14.24 14.42C14.18 14.38 14.1133 14.3383 14.04 14.295C13.97 14.2483 13.885 14.2067 13.785 14.17C13.6883 14.13 13.5733 14.0967 13.44 14.07C13.31 14.0433 13.1567 14.03 12.98 14.03C12.6733 14.03 12.3933 14.085 12.14 14.195C11.8867 14.3017 11.6683 14.4567 11.485 14.66C11.305 14.86 11.1633 15.1033 11.06 15.39C10.96 15.6767 10.91 15.9983 10.91 16.355C10.91 16.7283 10.96 17.06 11.06 17.35C11.1633 17.64 11.3017 17.885 11.475 18.085C11.6517 18.2817 11.8567 18.4317 12.09 18.535C12.3233 18.6383 12.5733 18.69 12.84 18.69C12.9933 18.69 13.1333 18.6833 13.26 18.67C13.3867 18.6533 13.5033 18.6267 13.61 18.59C13.72 18.5533 13.8233 18.5067 13.92 18.45C14.02 18.39 14.12 18.3167 14.22 18.23C14.26 18.1967 14.3033 18.17 14.35 18.15C14.3967 18.1267 14.445 18.115 14.495 18.115ZM21.0673 18.115C21.1073 18.115 21.1473 18.1233 21.1873 18.14C21.2273 18.1533 21.2656 18.1783 21.3023 18.215L21.9723 18.92C21.6789 19.3033 21.3106 19.5933 20.8673 19.79C20.4273 19.9833 19.9056 20.08 19.3023 20.08C18.7489 20.08 18.2523 19.9867 17.8123 19.8C17.3756 19.61 17.0039 19.35 16.6973 19.02C16.3939 18.6867 16.1606 18.2933 15.9973 17.84C15.8339 17.3833 15.7523 16.8883 15.7523 16.355C15.7523 15.8117 15.8456 15.3133 16.0323 14.86C16.2189 14.4033 16.4789 14.01 16.8123 13.68C17.1489 13.35 17.5506 13.0933 18.0173 12.91C18.4839 12.7267 18.9989 12.635 19.5623 12.635C19.8356 12.635 20.0923 12.66 20.3323 12.71C20.5756 12.7567 20.8023 12.8233 21.0123 12.91C21.2223 12.9933 21.4156 13.095 21.5923 13.215C21.7689 13.3317 21.9256 13.4617 22.0623 13.605L21.4923 14.37C21.4556 14.4167 21.4123 14.46 21.3623 14.5C21.3123 14.5367 21.2423 14.555 21.1523 14.555C21.0923 14.555 21.0356 14.5417 20.9823 14.515C20.9289 14.4883 20.8723 14.4567 20.8123 14.42C20.7523 14.38 20.6856 14.3383 20.6123 14.295C20.5423 14.2483 20.4573 14.2067 20.3573 14.17C20.2606 14.13 20.1456 14.0967 20.0123 14.07C19.8823 14.0433 19.7289 14.03 19.5523 14.03C19.2456 14.03 18.9656 14.085 18.7123 14.195C18.4589 14.3017 18.2406 14.4567 18.0573 14.66C17.8773 14.86 17.7356 15.1033 17.6323 15.39C17.5323 15.6767 17.4823 15.9983 17.4823 16.355C17.4823 16.7283 17.5323 17.06 17.6323 17.35C17.7356 17.64 17.8739 17.885 18.0473 18.085C18.2239 18.2817 18.4289 18.4317 18.6623 18.535C18.8956 18.6383 19.1456 18.69 19.4123 18.69C19.5656 18.69 19.7056 18.6833 19.8323 18.67C19.9589 18.6533 20.0756 18.6267 20.1823 18.59C20.2923 18.5533 20.3956 18.5067 20.4923 18.45C20.5923 18.39 20.6923 18.3167 20.7923 18.23C20.8323 18.1967 20.8756 18.17 20.9223 18.15C20.9689 18.1267 21.0173 18.115 21.0673 18.115Z" fill="#473E9E"/>
</svg>
