<svg width="33" height="33" viewBox="0 0 33 33" fill="none" xmlns="http://www.w3.org/2000/svg">
<g clip-path="url(#clip0_1805_2558)">
<path d="M22 22L16.5 16.5L11 22" stroke="#473E9E" stroke-width="2.75" stroke-linecap="round" stroke-linejoin="round"/>
<path d="M16.5 16.5V28.875" stroke="#473E9E" stroke-width="2.75" stroke-linecap="round" stroke-linejoin="round"/>
<path d="M28.0363 25.2848C29.3773 24.5537 30.4368 23.3968 31.0473 21.9967C31.6579 20.5966 31.7848 19.033 31.408 17.5528C31.0313 16.0725 30.1723 14.7599 28.9667 13.8221C27.7611 12.8842 26.2774 12.3746 24.75 12.3736H23.0175C22.6013 10.7638 21.8256 9.26928 20.7487 8.00244C19.6718 6.73559 18.3217 5.72937 16.7999 5.05941C15.2781 4.38945 13.6243 4.07319 11.9627 4.13441C10.3011 4.19563 8.67497 4.63274 7.20662 5.41286C5.73828 6.19299 4.46588 7.29584 3.48511 8.6385C2.50434 9.98116 1.84071 11.5287 1.5441 13.1647C1.2475 14.8008 1.32565 16.4828 1.77267 18.0843C2.2197 19.6858 3.02396 21.1651 4.12501 22.4111" stroke="#473E9E" stroke-width="2.75" stroke-linecap="round" stroke-linejoin="round"/>
<path d="M22 22L16.5 16.5L11 22" stroke="#473E9E" stroke-width="2.75" stroke-linecap="round" stroke-linejoin="round"/>
</g>
<defs>
<clipPath id="clip0_1805_2558">
<rect width="33" height="33" fill="white"/>
</clipPath>
</defs>
</svg>
