<svg width="128" height="72" viewBox="0 0 128 72" fill="none" xmlns="http://www.w3.org/2000/svg">
<path d="M20.745 45.2727H21.8018V51.0511C21.8018 51.6477 21.6612 52.1804 21.38 52.6491C21.1016 53.1151 20.7081 53.483 20.1996 53.7528C19.6911 54.0199 19.0945 54.1534 18.4098 54.1534C17.7251 54.1534 17.1286 54.0199 16.62 53.7528C16.1115 53.483 15.7166 53.1151 15.4354 52.6491C15.157 52.1804 15.0178 51.6477 15.0178 51.0511V45.2727H16.0746V50.9659C16.0746 51.392 16.1683 51.7713 16.3558 52.1037C16.5433 52.4332 16.8104 52.6932 17.157 52.8835C17.5064 53.071 17.924 53.1648 18.4098 53.1648C18.8956 53.1648 19.3132 53.071 19.6626 52.8835C20.0121 52.6932 20.2791 52.4332 20.4638 52.1037C20.6513 51.7713 20.745 51.392 20.745 50.9659V45.2727ZM23.7759 56.4545V47.4545H24.7475V48.4943H24.8668C24.9407 48.3807 25.043 48.2358 25.1737 48.0597C25.3072 47.8807 25.4975 47.7216 25.7447 47.5824C25.9947 47.4403 26.3327 47.3693 26.7589 47.3693C27.31 47.3693 27.7958 47.5071 28.2163 47.7827C28.6367 48.0582 28.9648 48.4489 29.2006 48.9545C29.4364 49.4602 29.5543 50.0568 29.5543 50.7443C29.5543 51.4375 29.4364 52.0384 29.2006 52.5469C28.9648 53.0526 28.6381 53.4446 28.2205 53.723C27.8029 53.9986 27.3214 54.1364 26.7759 54.1364C26.3555 54.1364 26.0188 54.0668 25.766 53.9276C25.5131 53.7855 25.3185 53.625 25.1822 53.446C25.0458 53.2642 24.9407 53.1136 24.8668 52.9943H24.7816V56.4545H23.7759ZM24.7646 50.7273C24.7646 51.2216 24.837 51.6577 24.9819 52.0355C25.1268 52.4105 25.3384 52.7045 25.6168 52.9176C25.8952 53.1278 26.2362 53.233 26.6396 53.233C27.06 53.233 27.4109 53.1222 27.6921 52.9006C27.9762 52.6761 28.1893 52.375 28.3313 51.9972C28.4762 51.6165 28.5487 51.1932 28.5487 50.7273C28.5487 50.267 28.4776 49.8523 28.3356 49.483C28.1964 49.1108 27.9847 48.8168 27.7006 48.6009C27.4194 48.3821 27.0657 48.2727 26.6396 48.2727C26.2305 48.2727 25.8867 48.3764 25.6083 48.5838C25.3299 48.7884 25.1197 49.0753 24.9776 49.4446C24.8356 49.8111 24.7646 50.2386 24.7646 50.7273ZM32.0941 45.2727V54H31.0884V45.2727H32.0941ZM36.5952 54.1364C36.0043 54.1364 35.4858 53.9957 35.0398 53.7145C34.5966 53.4332 34.25 53.0398 34 52.5341C33.7528 52.0284 33.6293 51.4375 33.6293 50.7614C33.6293 50.0795 33.7528 49.4844 34 48.9759C34.25 48.4673 34.5966 48.0724 35.0398 47.7912C35.4858 47.5099 36.0043 47.3693 36.5952 47.3693C37.1861 47.3693 37.7031 47.5099 38.1463 47.7912C38.5923 48.0724 38.9389 48.4673 39.1861 48.9759C39.4361 49.4844 39.5611 50.0795 39.5611 50.7614C39.5611 51.4375 39.4361 52.0284 39.1861 52.5341C38.9389 53.0398 38.5923 53.4332 38.1463 53.7145C37.7031 53.9957 37.1861 54.1364 36.5952 54.1364ZM36.5952 53.233C37.044 53.233 37.4134 53.1179 37.7031 52.8878C37.9929 52.6577 38.2074 52.3551 38.3466 51.9801C38.4858 51.6051 38.5554 51.1989 38.5554 50.7614C38.5554 50.3239 38.4858 49.9162 38.3466 49.5384C38.2074 49.1605 37.9929 48.8551 37.7031 48.6222C37.4134 48.3892 37.044 48.2727 36.5952 48.2727C36.1463 48.2727 35.777 48.3892 35.4872 48.6222C35.1974 48.8551 34.983 49.1605 34.8438 49.5384C34.7045 49.9162 34.6349 50.3239 34.6349 50.7614C34.6349 51.1989 34.7045 51.6051 34.8438 51.9801C34.983 52.3551 35.1974 52.6577 35.4872 52.8878C35.777 53.1179 36.1463 53.233 36.5952 53.233ZM43.0224 54.1534C42.6076 54.1534 42.2312 54.0753 41.8931 53.919C41.555 53.7599 41.2866 53.5312 41.0877 53.233C40.8888 52.9318 40.7894 52.5682 40.7894 52.142C40.7894 51.767 40.8633 51.4631 41.011 51.2301C41.1587 50.9943 41.3562 50.8097 41.6033 50.6761C41.8505 50.5426 42.1232 50.4432 42.4215 50.3778C42.7227 50.3097 43.0252 50.2557 43.3292 50.2159C43.7269 50.1648 44.0494 50.1264 44.2965 50.1009C44.5465 50.0724 44.7283 50.0256 44.842 49.9602C44.9585 49.8949 45.0167 49.7812 45.0167 49.6193V49.5852C45.0167 49.1648 44.9016 48.8381 44.6715 48.6051C44.4442 48.3722 44.0991 48.2557 43.636 48.2557C43.1559 48.2557 42.7795 48.3608 42.5067 48.571C42.234 48.7812 42.0423 49.0057 41.9315 49.2443L40.9769 48.9034C41.1474 48.5057 41.3746 48.196 41.6587 47.9744C41.9457 47.75 42.2582 47.5937 42.5962 47.5057C42.9371 47.4148 43.2724 47.3693 43.6019 47.3693C43.8121 47.3693 44.0536 47.3949 44.3263 47.446C44.6019 47.4943 44.8675 47.5952 45.1232 47.7486C45.3817 47.902 45.5962 48.1335 45.7667 48.4432C45.9371 48.7528 46.0224 49.1676 46.0224 49.6875V54H45.0167V53.1136H44.9656C44.8974 53.2557 44.7837 53.4077 44.6246 53.5696C44.4656 53.7315 44.2539 53.8693 43.9897 53.983C43.7255 54.0966 43.4031 54.1534 43.0224 54.1534ZM43.1758 53.25C43.5735 53.25 43.9087 53.1719 44.1815 53.0156C44.457 52.8594 44.6644 52.6577 44.8036 52.4105C44.9457 52.1634 45.0167 51.9034 45.0167 51.6307V50.7102C44.9741 50.7614 44.8803 50.8082 44.7354 50.8509C44.5934 50.8906 44.4286 50.9261 44.2411 50.9574C44.0565 50.9858 43.8761 51.0114 43.6999 51.0341C43.5266 51.054 43.386 51.071 43.2781 51.0852C43.0167 51.1193 42.7724 51.1747 42.5451 51.2514C42.3207 51.3253 42.1388 51.4375 41.9996 51.5881C41.8633 51.7358 41.7951 51.9375 41.7951 52.1932C41.7951 52.5426 41.9244 52.8068 42.1829 52.9858C42.4442 53.1619 42.7752 53.25 43.1758 53.25ZM50.3295 54.1364C49.7841 54.1364 49.3026 53.9986 48.8849 53.723C48.4673 53.4446 48.1406 53.0526 47.9048 52.5469C47.669 52.0384 47.5511 51.4375 47.5511 50.7443C47.5511 50.0568 47.669 49.4602 47.9048 48.9545C48.1406 48.4489 48.4688 48.0582 48.8892 47.7827C49.3097 47.5071 49.7955 47.3693 50.3466 47.3693C50.7727 47.3693 51.1094 47.4403 51.3565 47.5824C51.6065 47.7216 51.7969 47.8807 51.9276 48.0597C52.0611 48.2358 52.1648 48.3807 52.2386 48.4943H52.3239V45.2727H53.3295V54H52.358V52.9943H52.2386C52.1648 53.1136 52.0597 53.2642 51.9233 53.446C51.7869 53.625 51.5923 53.7855 51.3395 53.9276C51.0866 54.0668 50.75 54.1364 50.3295 54.1364ZM50.4659 53.233C50.8693 53.233 51.2102 53.1278 51.4886 52.9176C51.767 52.7045 51.9787 52.4105 52.1236 52.0355C52.2685 51.6577 52.3409 51.2216 52.3409 50.7273C52.3409 50.2386 52.2699 49.8111 52.1278 49.4446C51.9858 49.0753 51.7756 48.7884 51.4972 48.5838C51.2188 48.3764 50.875 48.2727 50.4659 48.2727C50.0398 48.2727 49.6847 48.3821 49.4006 48.6009C49.1193 48.8168 48.9077 49.1108 48.7656 49.483C48.6264 49.8523 48.5568 50.267 48.5568 50.7273C48.5568 51.1932 48.6278 51.6165 48.7699 51.9972C48.9148 52.375 49.1278 52.6761 49.4091 52.9006C49.6932 53.1222 50.0455 53.233 50.4659 53.233ZM59.3338 56.4545C59.1634 56.4545 59.0114 56.4403 58.8778 56.4119C58.7443 56.3864 58.652 56.3608 58.6009 56.3352L58.8565 55.4489C59.1009 55.5114 59.3168 55.5341 59.5043 55.517C59.6918 55.5 59.858 55.4162 60.0028 55.2656C60.1506 55.1179 60.2855 54.8778 60.4077 54.5455L60.5952 54.0341L58.1747 47.4545H59.2656L61.0724 52.6705H61.1406L62.9474 47.4545H64.0384L61.2599 54.9545C61.1349 55.2926 60.9801 55.5724 60.7955 55.794C60.6108 56.0185 60.3963 56.1847 60.152 56.2926C59.9105 56.4006 59.6378 56.4545 59.3338 56.4545ZM67.7905 54.1364C67.1996 54.1364 66.6811 53.9957 66.2351 53.7145C65.7919 53.4332 65.4453 53.0398 65.1953 52.5341C64.9482 52.0284 64.8246 51.4375 64.8246 50.7614C64.8246 50.0795 64.9482 49.4844 65.1953 48.9759C65.4453 48.4673 65.7919 48.0724 66.2351 47.7912C66.6811 47.5099 67.1996 47.3693 67.7905 47.3693C68.3814 47.3693 68.8984 47.5099 69.3416 47.7912C69.7876 48.0724 70.1342 48.4673 70.3814 48.9759C70.6314 49.4844 70.7564 50.0795 70.7564 50.7614C70.7564 51.4375 70.6314 52.0284 70.3814 52.5341C70.1342 53.0398 69.7876 53.4332 69.3416 53.7145C68.8984 53.9957 68.3814 54.1364 67.7905 54.1364ZM67.7905 53.233C68.2393 53.233 68.6087 53.1179 68.8984 52.8878C69.1882 52.6577 69.4027 52.3551 69.5419 51.9801C69.6811 51.6051 69.7507 51.1989 69.7507 50.7614C69.7507 50.3239 69.6811 49.9162 69.5419 49.5384C69.4027 49.1605 69.1882 48.8551 68.8984 48.6222C68.6087 48.3892 68.2393 48.2727 67.7905 48.2727C67.3416 48.2727 66.9723 48.3892 66.6825 48.6222C66.3928 48.8551 66.1783 49.1605 66.0391 49.5384C65.8999 49.9162 65.8303 50.3239 65.8303 50.7614C65.8303 51.1989 65.8999 51.6051 66.0391 51.9801C66.1783 52.3551 66.3928 52.6577 66.6825 52.8878C66.9723 53.1179 67.3416 53.233 67.7905 53.233ZM76.4165 51.3239V47.4545H77.4222V54H76.4165V52.892H76.3484C76.195 53.2244 75.9563 53.5071 75.6325 53.7401C75.3086 53.9702 74.8995 54.0852 74.4052 54.0852C73.9961 54.0852 73.6325 53.9957 73.3143 53.8168C72.9961 53.6349 72.7461 53.3622 72.5643 52.9986C72.3825 52.6321 72.2915 52.1705 72.2915 51.6136V47.4545H73.2972V51.5455C73.2972 52.0227 73.4308 52.4034 73.6978 52.6875C73.9677 52.9716 74.3114 53.1136 74.729 53.1136C74.979 53.1136 75.2333 53.0497 75.4918 52.9219C75.7532 52.794 75.9719 52.598 76.1481 52.3338C76.3271 52.0696 76.4165 51.733 76.4165 51.3239ZM79.2642 54V47.4545H80.2358V48.4432H80.304C80.4233 48.1193 80.6392 47.8565 80.9517 47.6548C81.2642 47.4531 81.6165 47.3523 82.0085 47.3523C82.0824 47.3523 82.1747 47.3537 82.2855 47.3565C82.3963 47.3594 82.4801 47.3636 82.5369 47.3693V48.392C82.5028 48.3835 82.4247 48.3707 82.3026 48.3537C82.1832 48.3338 82.0568 48.3239 81.9233 48.3239C81.6051 48.3239 81.321 48.3906 81.071 48.5241C80.8239 48.6548 80.6278 48.8366 80.483 49.0696C80.3409 49.2997 80.2699 49.5625 80.2699 49.858V54H79.2642ZM88.1097 45.2727V54H87.104V45.2727H88.1097ZM92.6108 54.1364C92.0199 54.1364 91.5014 53.9957 91.0554 53.7145C90.6122 53.4332 90.2656 53.0398 90.0156 52.5341C89.7685 52.0284 89.6449 51.4375 89.6449 50.7614C89.6449 50.0795 89.7685 49.4844 90.0156 48.9759C90.2656 48.4673 90.6122 48.0724 91.0554 47.7912C91.5014 47.5099 92.0199 47.3693 92.6108 47.3693C93.2017 47.3693 93.7188 47.5099 94.1619 47.7912C94.608 48.0724 94.9545 48.4673 95.2017 48.9759C95.4517 49.4844 95.5767 50.0795 95.5767 50.7614C95.5767 51.4375 95.4517 52.0284 95.2017 52.5341C94.9545 53.0398 94.608 53.4332 94.1619 53.7145C93.7188 53.9957 93.2017 54.1364 92.6108 54.1364ZM92.6108 53.233C93.0597 53.233 93.429 53.1179 93.7188 52.8878C94.0085 52.6577 94.223 52.3551 94.3622 51.9801C94.5014 51.6051 94.571 51.1989 94.571 50.7614C94.571 50.3239 94.5014 49.9162 94.3622 49.5384C94.223 49.1605 94.0085 48.8551 93.7188 48.6222C93.429 48.3892 93.0597 48.2727 92.6108 48.2727C92.1619 48.2727 91.7926 48.3892 91.5028 48.6222C91.2131 48.8551 90.9986 49.1605 90.8594 49.5384C90.7202 49.9162 90.6506 50.3239 90.6506 50.7614C90.6506 51.1989 90.7202 51.6051 90.8594 51.9801C90.9986 52.3551 91.2131 52.6577 91.5028 52.8878C91.7926 53.1179 92.1619 53.233 92.6108 53.233ZM99.7539 56.5909C99.2681 56.5909 98.8505 56.5284 98.5011 56.4034C98.1516 56.2812 97.8604 56.1193 97.6275 55.9176C97.3974 55.7188 97.2141 55.5057 97.0778 55.2784L97.8789 54.7159C97.9698 54.8352 98.0849 54.9716 98.2241 55.125C98.3633 55.2812 98.5536 55.4162 98.7951 55.5298C99.0394 55.6463 99.359 55.7045 99.7539 55.7045C100.282 55.7045 100.718 55.5767 101.062 55.321C101.406 55.0653 101.578 54.6648 101.578 54.1193V52.7898H101.493C101.419 52.9091 101.314 53.0568 101.177 53.233C101.044 53.4062 100.85 53.5611 100.598 53.6974C100.348 53.831 100.01 53.8977 99.5835 53.8977C99.055 53.8977 98.5806 53.7727 98.1602 53.5227C97.7425 53.2727 97.4116 52.9091 97.1673 52.4318C96.9258 51.9545 96.805 51.375 96.805 50.6932C96.805 50.0227 96.9229 49.4389 97.1587 48.9418C97.3945 48.4418 97.7227 48.0554 98.1431 47.7827C98.5636 47.5071 99.0494 47.3693 99.6005 47.3693C100.027 47.3693 100.365 47.4403 100.615 47.5824C100.868 47.7216 101.061 47.8807 101.194 48.0597C101.331 48.2358 101.436 48.3807 101.51 48.4943H101.612V47.4545H102.583V54.1875C102.583 54.75 102.456 55.2074 102.2 55.5597C101.947 55.9148 101.606 56.1747 101.177 56.3395C100.751 56.5071 100.277 56.5909 99.7539 56.5909ZM99.7198 52.9943C100.123 52.9943 100.464 52.902 100.743 52.7173C101.021 52.5327 101.233 52.267 101.377 51.9205C101.522 51.5739 101.595 51.1591 101.595 50.6761C101.595 50.2045 101.524 49.7884 101.382 49.4276C101.24 49.0668 101.029 48.7841 100.751 48.5795C100.473 48.375 100.129 48.2727 99.7198 48.2727C99.2937 48.2727 98.9386 48.3807 98.6545 48.5966C98.3732 48.8125 98.1616 49.1023 98.0195 49.4659C97.8803 49.8295 97.8107 50.233 97.8107 50.6761C97.8107 51.1307 97.8817 51.5327 98.0238 51.8821C98.1687 52.2287 98.3817 52.5014 98.663 52.7003C98.9471 52.8963 99.2994 52.9943 99.7198 52.9943ZM107.083 54.1364C106.493 54.1364 105.974 53.9957 105.528 53.7145C105.085 53.4332 104.738 53.0398 104.488 52.5341C104.241 52.0284 104.118 51.4375 104.118 50.7614C104.118 50.0795 104.241 49.4844 104.488 48.9759C104.738 48.4673 105.085 48.0724 105.528 47.7912C105.974 47.5099 106.493 47.3693 107.083 47.3693C107.674 47.3693 108.191 47.5099 108.635 47.7912C109.081 48.0724 109.427 48.4673 109.674 48.9759C109.924 49.4844 110.049 50.0795 110.049 50.7614C110.049 51.4375 109.924 52.0284 109.674 52.5341C109.427 53.0398 109.081 53.4332 108.635 53.7145C108.191 53.9957 107.674 54.1364 107.083 54.1364ZM107.083 53.233C107.532 53.233 107.902 53.1179 108.191 52.8878C108.481 52.6577 108.696 52.3551 108.835 51.9801C108.974 51.6051 109.044 51.1989 109.044 50.7614C109.044 50.3239 108.974 49.9162 108.835 49.5384C108.696 49.1605 108.481 48.8551 108.191 48.6222C107.902 48.3892 107.532 48.2727 107.083 48.2727C106.635 48.2727 106.265 48.3892 105.975 48.6222C105.686 48.8551 105.471 49.1605 105.332 49.5384C105.193 49.9162 105.123 50.3239 105.123 50.7614C105.123 51.1989 105.193 51.6051 105.332 51.9801C105.471 52.3551 105.686 52.6577 105.975 52.8878C106.265 53.1179 106.635 53.233 107.083 53.233Z" fill="#473E9E"/>
<path d="M1.93271 69.0682C1.72248 69.0682 1.54208 68.9929 1.39151 68.8423C1.24094 68.6918 1.16566 68.5114 1.16566 68.3011C1.16566 68.0909 1.24094 67.9105 1.39151 67.7599C1.54208 67.6094 1.72248 67.5341 1.93271 67.5341C2.14293 67.5341 2.32333 67.6094 2.4739 67.7599C2.62447 67.9105 2.69975 68.0909 2.69975 68.3011C2.69975 68.4403 2.66424 68.5682 2.59322 68.6847C2.52504 68.8011 2.43271 68.8949 2.31623 68.9659C2.20259 69.0341 2.07475 69.0682 1.93271 69.0682ZM4.50444 71.4545V62.4545H5.47603V63.4943H5.59535C5.66921 63.3807 5.77148 63.2358 5.90217 63.0597C6.03569 62.8807 6.22603 62.7216 6.47319 62.5824C6.72319 62.4403 7.06126 62.3693 7.48739 62.3693C8.03853 62.3693 8.52433 62.5071 8.94478 62.7827C9.36523 63.0582 9.69336 63.4489 9.92916 63.9545C10.165 64.4602 10.2828 65.0568 10.2828 65.7443C10.2828 66.4375 10.165 67.0384 9.92916 67.5469C9.69336 68.0526 9.36665 68.4446 8.94904 68.723C8.53143 68.9986 8.04989 69.1364 7.50444 69.1364C7.08398 69.1364 6.74734 69.0668 6.4945 68.9276C6.24165 68.7855 6.04705 68.625 5.91069 68.446C5.77433 68.2642 5.66921 68.1136 5.59535 67.9943H5.51012V71.4545H4.50444ZM5.49308 65.7273C5.49308 66.2216 5.56552 66.6577 5.7104 67.0355C5.85529 67.4105 6.06694 67.7045 6.34535 67.9176C6.62376 68.1278 6.96467 68.233 7.36808 68.233C7.78853 68.233 8.13938 68.1222 8.42063 67.9006C8.70472 67.6761 8.91779 67.375 9.05984 66.9972C9.20472 66.6165 9.27717 66.1932 9.27717 65.7273C9.27717 65.267 9.20614 64.8523 9.0641 64.483C8.92489 64.1108 8.71325 63.8168 8.42915 63.6009C8.1479 63.3821 7.79421 63.2727 7.36808 63.2727C6.95898 63.2727 6.61523 63.3764 6.33683 63.5838C6.05842 63.7884 5.84819 64.0753 5.70614 64.4446C5.5641 64.8111 5.49308 65.2386 5.49308 65.7273ZM12.8226 65.0625V69H11.8169V62.4545H12.7885V63.4773H12.8738C13.0272 63.1449 13.2601 62.8778 13.5726 62.6761C13.8851 62.4716 14.2885 62.3693 14.7828 62.3693C15.226 62.3693 15.6138 62.4602 15.9462 62.642C16.2786 62.821 16.5371 63.0938 16.7218 63.4602C16.9064 63.8239 16.9988 64.2841 16.9988 64.8409V69H15.9931V64.9091C15.9931 64.3949 15.8596 63.9943 15.5925 63.7074C15.3255 63.4176 14.959 63.2727 14.4931 63.2727C14.1721 63.2727 13.8851 63.3423 13.6323 63.4815C13.3823 63.6207 13.1848 63.8239 13.04 64.0909C12.8951 64.358 12.8226 64.6818 12.8226 65.0625ZM21.4785 71.5909C20.9927 71.5909 20.5751 71.5284 20.2257 71.4034C19.8762 71.2812 19.585 71.1193 19.3521 70.9176C19.122 70.7188 18.9387 70.5057 18.8024 70.2784L19.6035 69.7159C19.6944 69.8352 19.8095 69.9716 19.9487 70.125C20.0879 70.2812 20.2782 70.4162 20.5197 70.5298C20.764 70.6463 21.0836 70.7045 21.4785 70.7045C22.0069 70.7045 22.443 70.5767 22.7868 70.321C23.1305 70.0653 23.3024 69.6648 23.3024 69.1193V67.7898H23.2172C23.1433 67.9091 23.0382 68.0568 22.9018 68.233C22.7683 68.4062 22.5751 68.5611 22.3223 68.6974C22.0723 68.831 21.7342 68.8977 21.3081 68.8977C20.7797 68.8977 20.3052 68.7727 19.8848 68.5227C19.4672 68.2727 19.1362 67.9091 18.8919 67.4318C18.6504 66.9545 18.5297 66.375 18.5297 65.6932C18.5297 65.0227 18.6475 64.4389 18.8833 63.9418C19.1191 63.4418 19.4473 63.0554 19.8677 62.7827C20.2882 62.5071 20.774 62.3693 21.3251 62.3693C21.7512 62.3693 22.0893 62.4403 22.3393 62.5824C22.5922 62.7216 22.7853 62.8807 22.9189 63.0597C23.0552 63.2358 23.1603 63.3807 23.2342 63.4943H23.3365V62.4545H24.3081V69.1875C24.3081 69.75 24.1802 70.2074 23.9245 70.5597C23.6717 70.9148 23.3308 71.1747 22.9018 71.3395C22.4757 71.5071 22.0012 71.5909 21.4785 71.5909ZM21.4444 67.9943C21.8478 67.9943 22.1887 67.902 22.4672 67.7173C22.7456 67.5327 22.9572 67.267 23.1021 66.9205C23.247 66.5739 23.3194 66.1591 23.3194 65.6761C23.3194 65.2045 23.2484 64.7884 23.1064 64.4276C22.9643 64.0668 22.7541 63.7841 22.4757 63.5795C22.1973 63.375 21.8535 63.2727 21.4444 63.2727C21.0183 63.2727 20.6632 63.3807 20.3791 63.5966C20.0978 63.8125 19.8862 64.1023 19.7441 64.4659C19.6049 64.8295 19.5353 65.233 19.5353 65.6761C19.5353 66.1307 19.6064 66.5327 19.7484 66.8821C19.8933 67.2287 20.1064 67.5014 20.3876 67.7003C20.6717 67.8963 21.024 67.9943 21.4444 67.9943ZM31.4501 69.1534C31.0353 69.1534 30.6589 69.0753 30.3208 68.919C29.9828 68.7599 29.7143 68.5312 29.5154 68.233C29.3166 67.9318 29.2172 67.5682 29.2172 67.142C29.2172 66.767 29.291 66.4631 29.4387 66.2301C29.5865 65.9943 29.7839 65.8097 30.0311 65.6761C30.2782 65.5426 30.551 65.4432 30.8493 65.3778C31.1504 65.3097 31.4529 65.2557 31.7569 65.2159C32.1547 65.1648 32.4771 65.1264 32.7243 65.1009C32.9743 65.0724 33.1561 65.0256 33.2697 64.9602C33.3862 64.8949 33.4444 64.7812 33.4444 64.6193V64.5852C33.4444 64.1648 33.3294 63.8381 33.0993 63.6051C32.872 63.3722 32.5268 63.2557 32.0637 63.2557C31.5836 63.2557 31.2072 63.3608 30.9345 63.571C30.6618 63.7812 30.47 64.0057 30.3592 64.2443L29.4047 63.9034C29.5751 63.5057 29.8024 63.196 30.0865 62.9744C30.3734 62.75 30.6859 62.5937 31.024 62.5057C31.3649 62.4148 31.7001 62.3693 32.0297 62.3693C32.2399 62.3693 32.4814 62.3949 32.7541 62.446C33.0297 62.4943 33.2953 62.5952 33.551 62.7486C33.8095 62.902 34.024 63.1335 34.1944 63.4432C34.3649 63.7528 34.4501 64.1676 34.4501 64.6875V69H33.4444V68.1136H33.3933C33.3251 68.2557 33.2115 68.4077 33.0524 68.5696C32.8933 68.7315 32.6816 68.8693 32.4174 68.983C32.1532 69.0966 31.8308 69.1534 31.4501 69.1534ZM31.6035 68.25C32.0012 68.25 32.3365 68.1719 32.6092 68.0156C32.8848 67.8594 33.0922 67.6577 33.2314 67.4105C33.3734 67.1634 33.4444 66.9034 33.4444 66.6307V65.7102C33.4018 65.7614 33.3081 65.8082 33.1632 65.8509C33.0211 65.8906 32.8564 65.9261 32.6689 65.9574C32.4842 65.9858 32.3038 66.0114 32.1277 66.0341C31.9544 66.054 31.8137 66.071 31.7058 66.0852C31.4444 66.1193 31.2001 66.1747 30.9728 66.2514C30.7484 66.3253 30.5666 66.4375 30.4274 66.5881C30.291 66.7358 30.2228 66.9375 30.2228 67.1932C30.2228 67.5426 30.3521 67.8068 30.6106 67.9858C30.872 68.1619 31.2029 68.25 31.6035 68.25ZM37.2914 65.0625V69H36.2857V62.4545H37.2573V63.4773H37.3425C37.4959 63.1449 37.7289 62.8778 38.0414 62.6761C38.3539 62.4716 38.7573 62.3693 39.2516 62.3693C39.6948 62.3693 40.0826 62.4602 40.415 62.642C40.7473 62.821 41.0059 63.0938 41.1905 63.4602C41.3752 63.8239 41.4675 64.2841 41.4675 64.8409V69H40.4618V64.9091C40.4618 64.3949 40.3283 63.9943 40.0613 63.7074C39.7942 63.4176 39.4277 63.2727 38.9618 63.2727C38.6408 63.2727 38.3539 63.3423 38.101 63.4815C37.851 63.6207 37.6536 63.8239 37.5087 64.0909C37.3638 64.358 37.2914 64.6818 37.2914 65.0625ZM45.7768 69.1364C45.2314 69.1364 44.7498 68.9986 44.3322 68.723C43.9146 68.4446 43.5879 68.0526 43.3521 67.5469C43.1163 67.0384 42.9984 66.4375 42.9984 65.7443C42.9984 65.0568 43.1163 64.4602 43.3521 63.9545C43.5879 63.4489 43.916 63.0582 44.3365 62.7827C44.7569 62.5071 45.2427 62.3693 45.7939 62.3693C46.22 62.3693 46.5566 62.4403 46.8038 62.5824C47.0538 62.7216 47.2441 62.8807 47.3748 63.0597C47.5083 63.2358 47.612 63.3807 47.6859 63.4943H47.7711V60.2727H48.7768V69H47.8052V67.9943H47.6859C47.612 68.1136 47.5069 68.2642 47.3706 68.446C47.2342 68.625 47.0396 68.7855 46.7868 68.9276C46.5339 69.0668 46.1973 69.1364 45.7768 69.1364ZM45.9132 68.233C46.3166 68.233 46.6575 68.1278 46.9359 67.9176C47.2143 67.7045 47.426 67.4105 47.5708 67.0355C47.7157 66.6577 47.7882 66.2216 47.7882 65.7273C47.7882 65.2386 47.7172 64.8111 47.5751 64.4446C47.4331 64.0753 47.2228 63.7884 46.9444 63.5838C46.666 63.3764 46.3223 63.2727 45.9132 63.2727C45.487 63.2727 45.1319 63.3821 44.8478 63.6009C44.5666 63.8168 44.3549 64.1108 44.2129 64.483C44.0737 64.8523 44.0041 65.267 44.0041 65.7273C44.0041 66.1932 44.0751 66.6165 44.2172 66.9972C44.362 67.375 44.5751 67.6761 44.8564 67.9006C45.1404 68.1222 45.4927 68.233 45.9132 68.233ZM54.8663 69.0682C54.6561 69.0682 54.4757 68.9929 54.3251 68.8423C54.1745 68.6918 54.0993 68.5114 54.0993 68.3011C54.0993 68.0909 54.1745 67.9105 54.3251 67.7599C54.4757 67.6094 54.6561 67.5341 54.8663 67.5341C55.0765 67.5341 55.2569 67.6094 55.4075 67.7599C55.5581 67.9105 55.6333 68.0909 55.6333 68.3011C55.6333 68.4403 55.5978 68.5682 55.5268 68.6847C55.4586 68.8011 55.3663 68.8949 55.2498 68.9659C55.1362 69.0341 55.0083 69.0682 54.8663 69.0682ZM57.438 62.4545H58.4437V69.4773C58.4437 69.8807 58.3741 70.2301 58.2349 70.5256C58.0985 70.821 57.8912 71.0497 57.6127 71.2116C57.3372 71.3736 56.9892 71.4545 56.5687 71.4545C56.5346 71.4545 56.5005 71.4545 56.4664 71.4545C56.4324 71.4545 56.3983 71.4545 56.3642 71.4545V70.517C56.3983 70.517 56.4295 70.517 56.4579 70.517C56.4863 70.517 56.5176 70.517 56.5517 70.517C56.8585 70.517 57.0829 70.4261 57.225 70.2443C57.367 70.0653 57.438 69.8097 57.438 69.4773V62.4545ZM57.9324 61.3636C57.7363 61.3636 57.5673 61.2969 57.4252 61.1634C57.286 61.0298 57.2164 60.8693 57.2164 60.6818C57.2164 60.4943 57.286 60.3338 57.4252 60.2003C57.5673 60.0668 57.7363 60 57.9324 60C58.1284 60 58.296 60.0668 58.4352 60.2003C58.5772 60.3338 58.6483 60.4943 58.6483 60.6818C58.6483 60.8693 58.5772 61.0298 58.4352 61.1634C58.296 61.2969 58.1284 61.3636 57.9324 61.3636ZM60.2857 71.4545V62.4545H61.2573V63.4943H61.3766C61.4505 63.3807 61.5527 63.2358 61.6834 63.0597C61.8169 62.8807 62.0073 62.7216 62.2544 62.5824C62.5044 62.4403 62.8425 62.3693 63.2686 62.3693C63.8198 62.3693 64.3056 62.5071 64.726 62.7827C65.1465 63.0582 65.4746 63.4489 65.7104 63.9545C65.9462 64.4602 66.0641 65.0568 66.0641 65.7443C66.0641 66.4375 65.9462 67.0384 65.7104 67.5469C65.4746 68.0526 65.1479 68.4446 64.7303 68.723C64.3127 68.9986 63.8311 69.1364 63.2857 69.1364C62.8652 69.1364 62.5286 69.0668 62.2757 68.9276C62.0229 68.7855 61.8283 68.625 61.6919 68.446C61.5556 68.2642 61.4505 68.1136 61.3766 67.9943H61.2914V71.4545H60.2857ZM61.2743 65.7273C61.2743 66.2216 61.3468 66.6577 61.4917 67.0355C61.6365 67.4105 61.8482 67.7045 62.1266 67.9176C62.405 68.1278 62.7459 68.233 63.1493 68.233C63.5698 68.233 63.9206 68.1222 64.2019 67.9006C64.486 67.6761 64.699 67.375 64.8411 66.9972C64.986 66.6165 65.0584 66.1932 65.0584 65.7273C65.0584 65.267 64.9874 64.8523 64.8453 64.483C64.7061 64.1108 64.4945 63.8168 64.2104 63.6009C63.9292 63.3821 63.5755 63.2727 63.1493 63.2727C62.7402 63.2727 62.3965 63.3764 62.1181 63.5838C61.8397 63.7884 61.6294 64.0753 61.4874 64.4446C61.3453 64.8111 61.2743 65.2386 61.2743 65.7273ZM70.2402 71.5909C69.7544 71.5909 69.3368 71.5284 68.9874 71.4034C68.638 71.2812 68.3468 71.1193 68.1138 70.9176C67.8837 70.7188 67.7005 70.5057 67.5641 70.2784L68.3652 69.7159C68.4561 69.8352 68.5712 69.9716 68.7104 70.125C68.8496 70.2812 69.04 70.4162 69.2814 70.5298C69.5257 70.6463 69.8453 70.7045 70.2402 70.7045C70.7686 70.7045 71.2047 70.5767 71.5485 70.321C71.8922 70.0653 72.0641 69.6648 72.0641 69.1193V67.7898H71.9789C71.905 67.9091 71.7999 68.0568 71.6635 68.233C71.53 68.4062 71.3368 68.5611 71.084 68.6974C70.834 68.831 70.4959 68.8977 70.0698 68.8977C69.5414 68.8977 69.0669 68.7727 68.6465 68.5227C68.2289 68.2727 67.8979 67.9091 67.6536 67.4318C67.4121 66.9545 67.2914 66.375 67.2914 65.6932C67.2914 65.0227 67.4093 64.4389 67.6451 63.9418C67.8809 63.4418 68.209 63.0554 68.6294 62.7827C69.0499 62.5071 69.5357 62.3693 70.0868 62.3693C70.513 62.3693 70.851 62.4403 71.101 62.5824C71.3539 62.7216 71.5471 62.8807 71.6806 63.0597C71.8169 63.2358 71.9221 63.3807 71.9959 63.4943H72.0982V62.4545H73.0698V69.1875C73.0698 69.75 72.9419 70.2074 72.6863 70.5597C72.4334 70.9148 72.0925 71.1747 71.6635 71.3395C71.2374 71.5071 70.763 71.5909 70.2402 71.5909ZM70.2061 67.9943C70.6096 67.9943 70.9505 67.902 71.2289 67.7173C71.5073 67.5327 71.7189 67.267 71.8638 66.9205C72.0087 66.5739 72.0811 66.1591 72.0811 65.6761C72.0811 65.2045 72.0101 64.7884 71.8681 64.4276C71.726 64.0668 71.5158 63.7841 71.2374 63.5795C70.959 63.375 70.6152 63.2727 70.2061 63.2727C69.78 63.2727 69.4249 63.3807 69.1408 63.5966C68.8596 63.8125 68.6479 64.1023 68.5059 64.4659C68.3667 64.8295 68.2971 65.233 68.2971 65.6761C68.2971 66.1307 68.3681 66.5327 68.5101 66.8821C68.655 67.2287 68.8681 67.5014 69.1493 67.7003C69.4334 67.8963 69.7857 67.9943 70.2061 67.9943ZM81.2005 62.4545V63.3068H77.6721V62.4545H81.2005ZM78.7289 69V61.5511C78.7289 61.1761 78.8169 60.8636 78.9931 60.6136C79.1692 60.3636 79.3979 60.1761 79.6792 60.0511C79.9604 59.9261 80.2573 59.8636 80.5698 59.8636C80.8169 59.8636 81.0186 59.8835 81.1749 59.9233C81.3311 59.9631 81.4476 60 81.5243 60.0341L81.2346 60.9034C81.1834 60.8864 81.1124 60.8651 81.0215 60.8395C80.9334 60.8139 80.8169 60.8011 80.6721 60.8011C80.3397 60.8011 80.0996 60.8849 79.9519 61.0526C79.807 61.2202 79.7346 61.4659 79.7346 61.7898V69H78.7289ZM82.6099 69V62.4545H83.6156V69H82.6099ZM83.1213 61.3636C82.9252 61.3636 82.7562 61.2969 82.6142 61.1634C82.475 61.0298 82.4054 60.8693 82.4054 60.6818C82.4054 60.4943 82.475 60.3338 82.6142 60.2003C82.7562 60.0668 82.9252 60 83.1213 60C83.3173 60 83.4849 60.0668 83.6241 60.2003C83.7662 60.3338 83.8372 60.4943 83.8372 60.6818C83.8372 60.8693 83.7662 61.0298 83.6241 61.1634C83.4849 61.2969 83.3173 61.3636 83.1213 61.3636ZM86.4632 60.2727V69H85.4576V60.2727H86.4632ZM91.0495 69.1364C90.4189 69.1364 89.8748 68.9972 89.4174 68.7188C88.9629 68.4375 88.612 68.0455 88.3649 67.5426C88.1206 67.0369 87.9984 66.4489 87.9984 65.7784C87.9984 65.108 88.1206 64.517 88.3649 64.0057C88.612 63.4915 88.9558 63.0909 89.3961 62.804C89.8393 62.5142 90.3564 62.3693 90.9473 62.3693C91.2882 62.3693 91.6248 62.4261 91.9572 62.5398C92.2896 62.6534 92.5922 62.8381 92.8649 63.0938C93.1376 63.3466 93.3549 63.6818 93.5169 64.0994C93.6788 64.517 93.7598 65.0312 93.7598 65.642V66.0682H88.7143V65.1989H92.737C92.737 64.8295 92.6632 64.5 92.5154 64.2102C92.3706 63.9205 92.1632 63.6918 91.8933 63.5241C91.6262 63.3565 91.3109 63.2727 90.9473 63.2727C90.5467 63.2727 90.2001 63.3722 89.9075 63.571C89.6177 63.767 89.3947 64.0227 89.2385 64.3381C89.0822 64.6534 89.0041 64.9915 89.0041 65.3523V65.9318C89.0041 66.4261 89.0893 66.8452 89.2598 67.1889C89.4331 67.5298 89.6731 67.7898 89.9799 67.9688C90.2868 68.1449 90.6433 68.233 91.0495 68.233C91.3137 68.233 91.5524 68.196 91.7654 68.1222C91.9814 68.0455 92.1674 67.9318 92.3237 67.7812C92.4799 67.6278 92.6007 67.4375 92.6859 67.2102L93.6575 67.483C93.5552 67.8125 93.3833 68.1023 93.1419 68.3523C92.9004 68.5994 92.6021 68.7926 92.247 68.9318C91.8919 69.0682 91.4927 69.1364 91.0495 69.1364ZM99.926 63.9205L99.0225 64.1761C98.9657 64.0256 98.8819 63.8793 98.7711 63.7372C98.6632 63.5923 98.5154 63.473 98.3279 63.3793C98.1404 63.2855 97.9004 63.2386 97.6078 63.2386C97.2072 63.2386 96.8734 63.331 96.6064 63.5156C96.3422 63.6974 96.21 63.929 96.21 64.2102C96.21 64.4602 96.301 64.6577 96.4828 64.8026C96.6646 64.9474 96.9487 65.0682 97.335 65.1648L98.3066 65.4034C98.8919 65.5455 99.3279 65.7628 99.6149 66.0554C99.9018 66.3452 100.045 66.7187 100.045 67.1761C100.045 67.5511 99.9373 67.8864 99.7214 68.1818C99.5083 68.4773 99.21 68.7102 98.8265 68.8807C98.443 69.0511 97.997 69.1364 97.4885 69.1364C96.8208 69.1364 96.2683 68.9915 95.8308 68.7017C95.3933 68.4119 95.1163 67.9886 94.9998 67.4318L95.9544 67.1932C96.0453 67.5455 96.2172 67.8097 96.47 67.9858C96.7257 68.1619 97.0595 68.25 97.4714 68.25C97.9402 68.25 98.3123 68.1506 98.5879 67.9517C98.8663 67.75 99.0055 67.5085 99.0055 67.2273C99.0055 67 98.926 66.8097 98.7669 66.6562C98.6078 66.5 98.3635 66.3835 98.0339 66.3068L96.943 66.0511C96.3436 65.9091 95.9032 65.6889 95.622 65.3906C95.3436 65.0895 95.2044 64.7131 95.2044 64.2614C95.2044 63.892 95.3081 63.5653 95.5154 63.2812C95.7257 62.9972 96.0112 62.7741 96.372 62.6122C96.7356 62.4503 97.1475 62.3693 97.6078 62.3693C98.2555 62.3693 98.764 62.5114 99.1333 62.7955C99.5055 63.0795 99.7697 63.4545 99.926 63.9205ZM107.593 69.1364C107.002 69.1364 106.484 68.9957 106.038 68.7145C105.595 68.4332 105.248 68.0398 104.998 67.5341C104.751 67.0284 104.627 66.4375 104.627 65.7614C104.627 65.0795 104.751 64.4844 104.998 63.9759C105.248 63.4673 105.595 63.0724 106.038 62.7912C106.484 62.5099 107.002 62.3693 107.593 62.3693C108.184 62.3693 108.701 62.5099 109.144 62.7912C109.59 63.0724 109.937 63.4673 110.184 63.9759C110.434 64.4844 110.559 65.0795 110.559 65.7614C110.559 66.4375 110.434 67.0284 110.184 67.5341C109.937 68.0398 109.59 68.4332 109.144 68.7145C108.701 68.9957 108.184 69.1364 107.593 69.1364ZM107.593 68.233C108.042 68.233 108.411 68.1179 108.701 67.8878C108.991 67.6577 109.205 67.3551 109.345 66.9801C109.484 66.6051 109.553 66.1989 109.553 65.7614C109.553 65.3239 109.484 64.9162 109.345 64.5384C109.205 64.1605 108.991 63.8551 108.701 63.6222C108.411 63.3892 108.042 63.2727 107.593 63.2727C107.144 63.2727 106.775 63.3892 106.485 63.6222C106.195 63.8551 105.981 64.1605 105.842 64.5384C105.703 64.9162 105.633 65.3239 105.633 65.7614C105.633 66.1989 105.703 66.6051 105.842 66.9801C105.981 67.3551 106.195 67.6577 106.485 67.8878C106.775 68.1179 107.144 68.233 107.593 68.233ZM113.1 65.0625V69H112.094V62.4545H113.066V63.4773H113.151C113.305 63.1449 113.537 62.8778 113.85 62.6761C114.162 62.4716 114.566 62.3693 115.06 62.3693C115.503 62.3693 115.891 62.4602 116.224 62.642C116.556 62.821 116.814 63.0938 116.999 63.4602C117.184 63.8239 117.276 64.2841 117.276 64.8409V69H116.27V64.9091C116.27 64.3949 116.137 63.9943 115.87 63.7074C115.603 63.4176 115.236 63.2727 114.77 63.2727C114.449 63.2727 114.162 63.3423 113.91 63.4815C113.66 63.6207 113.462 63.8239 113.317 64.0909C113.172 64.358 113.1 64.6818 113.1 65.0625ZM120.119 60.2727V69H119.114V60.2727H120.119ZM122.609 71.4545C122.439 71.4545 122.287 71.4403 122.153 71.4119C122.02 71.3864 121.927 71.3608 121.876 71.3352L122.132 70.4489C122.376 70.5114 122.592 70.5341 122.78 70.517C122.967 70.5 123.133 70.4162 123.278 70.2656C123.426 70.1179 123.561 69.8778 123.683 69.5455L123.871 69.0341L121.45 62.4545H122.541L124.348 67.6705H124.416L126.223 62.4545H127.314L124.535 69.9545C124.41 70.2926 124.256 70.5724 124.071 70.794C123.886 71.0185 123.672 71.1847 123.427 71.2926C123.186 71.4006 122.913 71.4545 122.609 71.4545Z" fill="#918BC5"/>
<g clip-path="url(#clip0_1805_2566)">
<path d="M70 22L64.5 16.5L59 22" stroke="#473E9E" stroke-width="2.75" stroke-linecap="round" stroke-linejoin="round"/>
<path d="M64.5 16.5V28.875" stroke="#473E9E" stroke-width="2.75" stroke-linecap="round" stroke-linejoin="round"/>
<path d="M76.0363 25.2848C77.3773 24.5537 78.4368 23.3968 79.0473 21.9967C79.6579 20.5966 79.7848 19.033 79.408 17.5528C79.0313 16.0725 78.1723 14.7599 76.9667 13.8221C75.7611 12.8842 74.2774 12.3746 72.75 12.3736H71.0175C70.6013 10.7638 69.8256 9.26928 68.7487 8.00244C67.6718 6.73559 66.3217 5.72937 64.7999 5.05941C63.2781 4.38945 61.6243 4.07319 59.9627 4.13441C58.3011 4.19563 56.675 4.63274 55.2066 5.41286C53.7383 6.19299 52.4659 7.29584 51.4851 8.6385C50.5043 9.98116 49.8407 11.5287 49.5441 13.1647C49.2475 14.8008 49.3257 16.4828 49.7727 18.0843C50.2197 19.6858 51.024 21.1651 52.125 22.4111" stroke="#473E9E" stroke-width="2.75" stroke-linecap="round" stroke-linejoin="round"/>
<path d="M70 22L64.5 16.5L59 22" stroke="#473E9E" stroke-width="2.75" stroke-linecap="round" stroke-linejoin="round"/>
</g>
<defs>
<clipPath id="clip0_1805_2566">
<rect width="33" height="33" fill="white" transform="translate(48)"/>
</clipPath>
</defs>
</svg>
